<svg width="76" height="76" viewBox="0 0 76 76" fill="none" xmlns="http://www.w3.org/2000/svg">
<path d="M70.0625 8.3125H5.9375C4.67823 8.31415 3.47101 8.81512 2.58056 9.70556C1.69012 10.596 1.18915 11.8032 1.1875 13.0625V53.4375C1.18915 54.6968 1.69012 55.904 2.58056 56.7944C3.47101 57.6849 4.67823 58.1859 5.9375 58.1875H30.4148L28.831 62.9375H24.9375C24.6226 62.9375 24.3205 63.0626 24.0978 63.2853C23.8751 63.508 23.75 63.8101 23.75 64.125V66.5H13.0625C12.7476 66.5 12.4455 66.6251 12.2228 66.8478C12.0001 67.0705 11.875 67.3726 11.875 67.6875C11.875 68.0024 12.0001 68.3045 12.2228 68.5272C12.4455 68.7499 12.7476 68.875 13.0625 68.875H65.3125C65.6274 68.875 65.9295 68.7499 66.1522 68.5272C66.3749 68.3045 66.5 68.0024 66.5 67.6875C66.5 67.3726 66.3749 67.0705 66.1522 66.8478C65.9295 66.6251 65.6274 66.5 65.3125 66.5H52.25V64.125C52.25 63.8101 52.1249 63.508 51.9022 63.2853C51.6795 63.0626 51.3774 62.9375 51.0625 62.9375H47.169L45.5852 58.1875H70.0625C71.3218 58.1859 72.529 57.6849 73.4194 56.7944C74.3099 55.904 74.8109 54.6968 74.8125 53.4375V13.0625C74.8109 11.8032 74.3099 10.596 73.4194 9.70556C72.529 8.81512 71.3218 8.31415 70.0625 8.3125ZM49.875 65.3125V66.5H26.125V65.3125H49.875ZM31.3352 62.9375L32.919 58.1875H43.081L44.6648 62.9375H31.3352ZM72.4375 53.4375C72.4367 54.0671 72.1862 54.6707 71.741 55.116C71.2957 55.5612 70.6921 55.8117 70.0625 55.8125H5.9375C5.30786 55.8117 4.70425 55.5612 4.25903 55.116C3.81381 54.6707 3.56332 54.0671 3.5625 53.4375V51.0625H72.4375V53.4375ZM21.3245 38L20.8792 48.6875H19.4958L19.0505 38H21.3245ZM19.2138 35.625L20.0064 30.875H20.3686L21.1612 35.625H19.2138ZM20.1875 28.5C18.9005 28.5 17.8125 26.8687 17.8125 24.9375C17.8125 23.7188 19.0564 21.948 20.1845 20.6996C21.2013 21.8277 22.5625 23.6313 22.5625 24.9375C22.5625 26.8687 21.4745 28.5 20.1875 28.5ZM33.1105 26.125L33.25 26.4055V27.3125H28.5V26.4055L28.6395 26.125H33.1105ZM29.827 23.75L30.875 21.6555L31.923 23.75H29.827ZM33.25 29.6875V48.5391C33.2505 48.5887 33.2539 48.6383 33.2604 48.6875H28.4896C28.4961 48.6383 28.4995 48.5887 28.5 48.5391V29.6875H33.25ZM43.9375 24.9375H47.5V27.3125H46.3125C45.9976 27.3125 45.6955 27.4376 45.4728 27.6603C45.2501 27.883 45.125 28.1851 45.125 28.5C45.125 28.8149 45.2501 29.117 45.4728 29.3397C45.6955 29.5624 45.9976 29.6875 46.3125 29.6875H47.5V32.0625H43.9375C43.6226 32.0625 43.3205 32.1876 43.0978 32.4103C42.8751 32.633 42.75 32.9351 42.75 33.25C42.75 33.5649 42.8751 33.867 43.0978 34.0897C43.3205 34.3124 43.6226 34.4375 43.9375 34.4375H47.5V36.8125H46.3125C45.9976 36.8125 45.6955 36.9376 45.4728 37.1603C45.2501 37.383 45.125 37.6851 45.125 38C45.125 38.3149 45.2501 38.617 45.4728 38.8397C45.6955 39.0624 45.9976 39.1875 46.3125 39.1875H47.5V41.5625H43.9375C43.6226 41.5625 43.3205 41.6876 43.0978 41.9103C42.8751 42.133 42.75 42.4351 42.75 42.75C42.75 43.0649 42.8751 43.367 43.0978 43.5897C43.3205 43.8124 43.6226 43.9375 43.9375 43.9375H47.5V48.6875H39.1875V20.1875H47.5V22.5625H43.9375C43.6226 22.5625 43.3205 22.6876 43.0978 22.9103C42.8751 23.133 42.75 23.4351 42.75 23.75C42.75 24.0649 42.8751 24.367 43.0978 24.5897C43.3205 24.8124 43.6226 24.9375 43.9375 24.9375ZM58.1875 39.1875V48.5391C58.188 48.5887 58.1914 48.6383 58.1979 48.6875H53.4271C53.4336 48.6383 53.437 48.5887 53.4375 48.5391V39.1875H58.1875ZM53.4375 36.8125V35.9055L55.8125 31.1555L58.1875 35.9055V36.8125H53.4375ZM72.4375 48.6875H60.5521C60.5586 48.6383 60.562 48.5887 60.5625 48.5391V35.625C60.5623 35.4406 60.5197 35.2588 60.4378 35.0936L56.8753 27.9686C56.7765 27.7714 56.6247 27.6056 56.437 27.4897C56.2493 27.3738 56.0331 27.3125 55.8125 27.3125C55.5919 27.3125 55.3757 27.3738 55.188 27.4897C55.0003 27.6056 54.8485 27.7714 54.7497 27.9686L51.1872 35.0936C51.1053 35.2588 51.0627 35.4406 51.0625 35.625V48.5391C51.063 48.5887 51.0664 48.6383 51.0729 48.6875H49.875V19C49.875 18.6851 49.7499 18.383 49.5272 18.1603C49.3045 17.9376 49.0024 17.8125 48.6875 17.8125H38C37.6851 17.8125 37.383 17.9376 37.1603 18.1603C36.9376 18.383 36.8125 18.6851 36.8125 19V48.6875H35.6146C35.6211 48.6383 35.6245 48.5887 35.625 48.5391V26.125C35.6248 25.9406 35.5822 25.7588 35.5003 25.5936L31.9378 18.4686C31.839 18.2714 31.6872 18.1056 31.4995 17.9897C31.3118 17.8738 31.0956 17.8124 30.875 17.8124C30.6544 17.8124 30.4382 17.8738 30.2505 17.9897C30.0628 18.1056 29.911 18.2714 29.8122 18.4686L26.2497 25.5936C26.1678 25.7588 26.1252 25.9406 26.125 26.125V48.5391C26.1255 48.5887 26.1289 48.6383 26.1354 48.6875H23.2557L23.7485 36.8615C23.75 36.8348 23.7485 36.808 23.7485 36.7798V36.7442C23.7458 36.7024 23.7408 36.6608 23.7337 36.6195V36.6166L22.6352 30.0245C24.0142 28.9839 24.9375 27.0928 24.9375 24.9375C24.9375 21.8856 21.4002 18.5057 20.9965 18.1302C20.7765 17.9262 20.4875 17.8129 20.1875 17.8129C19.8875 17.8129 19.5985 17.9262 19.3785 18.1302C18.9748 18.5057 15.4375 21.8856 15.4375 24.9375C15.4375 27.0928 16.3608 28.9839 17.7398 30.0245L16.6413 36.6166V36.6195C16.6342 36.6608 16.6292 36.7024 16.6265 36.7442V36.7798C16.6265 36.808 16.625 36.8348 16.6265 36.8615L17.1193 48.6875H3.5625V13.0625C3.56332 12.4329 3.81381 11.8293 4.25903 11.384C4.70425 10.9388 5.30786 10.6883 5.9375 10.6875H70.0625C70.6921 10.6883 71.2957 10.9388 71.741 11.384C72.1862 11.8293 72.4367 12.4329 72.4375 13.0625V48.6875Z" fill="#B91F1F"/>
<path d="M14.25 52.25H7.125C6.81006 52.25 6.50801 52.3751 6.28531 52.5978C6.06261 52.8205 5.9375 53.1226 5.9375 53.4375C5.9375 53.7524 6.06261 54.0545 6.28531 54.2772C6.50801 54.4999 6.81006 54.625 7.125 54.625H14.25C14.5649 54.625 14.867 54.4999 15.0897 54.2772C15.3124 54.0545 15.4375 53.7524 15.4375 53.4375C15.4375 53.1226 15.3124 52.8205 15.0897 52.5978C14.867 52.3751 14.5649 52.25 14.25 52.25Z" fill="#B91F1F"/>
<path d="M19 52.25H17.8125C17.4976 52.25 17.1955 52.3751 16.9728 52.5978C16.7501 52.8205 16.625 53.1226 16.625 53.4375C16.625 53.7524 16.7501 54.0545 16.9728 54.2772C17.1955 54.4999 17.4976 54.625 17.8125 54.625H19C19.3149 54.625 19.617 54.4999 19.8397 54.2772C20.0624 54.0545 20.1875 53.7524 20.1875 53.4375C20.1875 53.1226 20.0624 52.8205 19.8397 52.5978C19.617 52.3751 19.3149 52.25 19 52.25Z" fill="#B91F1F"/>
<path d="M30.875 30.875C30.5601 30.875 30.258 31.0001 30.0353 31.2228C29.8126 31.4455 29.6875 31.7476 29.6875 32.0625V45.125C29.6875 45.4399 29.8126 45.742 30.0353 45.9647C30.258 46.1874 30.5601 46.3125 30.875 46.3125C31.1899 46.3125 31.492 46.1874 31.7147 45.9647C31.9374 45.742 32.0625 45.4399 32.0625 45.125V32.0625C32.0625 31.7476 31.9374 31.4455 31.7147 31.2228C31.492 31.0001 31.1899 30.875 30.875 30.875Z" fill="#B91F1F"/>
<path d="M55.8125 40.375C55.4976 40.375 55.1955 40.5001 54.9728 40.7228C54.7501 40.9455 54.625 41.2476 54.625 41.5625V45.125C54.625 45.4399 54.7501 45.742 54.9728 45.9647C55.1955 46.1874 55.4976 46.3125 55.8125 46.3125C56.1274 46.3125 56.4295 46.1874 56.6522 45.9647C56.8749 45.742 57 45.4399 57 45.125V41.5625C57 41.2476 56.8749 40.9455 56.6522 40.7228C56.4295 40.5001 56.1274 40.375 55.8125 40.375Z" fill="#B91F1F"/>
<path d="M7.125 15.4375H16.625C16.9399 15.4375 17.242 15.3124 17.4647 15.0897C17.6874 14.867 17.8125 14.5649 17.8125 14.25C17.8125 13.9351 17.6874 13.633 17.4647 13.4103C17.242 13.1876 16.9399 13.0625 16.625 13.0625H7.125C6.81006 13.0625 6.50801 13.1876 6.28531 13.4103C6.06261 13.633 5.9375 13.9351 5.9375 14.25C5.9375 14.5649 6.06261 14.867 6.28531 15.0897C6.50801 15.3124 6.81006 15.4375 7.125 15.4375Z" fill="#B91F1F"/>
<path d="M7.125 19H9.5C9.81494 19 10.117 18.8749 10.3397 18.6522C10.5624 18.4295 10.6875 18.1274 10.6875 17.8125C10.6875 17.4976 10.5624 17.1955 10.3397 16.9728C10.117 16.7501 9.81494 16.625 9.5 16.625H7.125C6.81006 16.625 6.50801 16.7501 6.28531 16.9728C6.06261 17.1955 5.9375 17.4976 5.9375 17.8125C5.9375 18.1274 6.06261 18.4295 6.28531 18.6522C6.50801 18.8749 6.81006 19 7.125 19Z" fill="#B91F1F"/>
<path d="M64.125 46.3125H68.875C69.1899 46.3125 69.492 46.1874 69.7147 45.9647C69.9374 45.742 70.0625 45.4399 70.0625 45.125C70.0625 44.8101 69.9374 44.508 69.7147 44.2853C69.492 44.0626 69.1899 43.9375 68.875 43.9375H64.125C63.8101 43.9375 63.508 44.0626 63.2853 44.2853C63.0626 44.508 62.9375 44.8101 62.9375 45.125C62.9375 45.4399 63.0626 45.742 63.2853 45.9647C63.508 46.1874 63.8101 46.3125 64.125 46.3125Z" fill="#B91F1F"/>
<path d="M67.6875 42.75H68.875C69.1899 42.75 69.492 42.6249 69.7147 42.4022C69.9374 42.1795 70.0625 41.8774 70.0625 41.5625C70.0625 41.2476 69.9374 40.9455 69.7147 40.7228C69.492 40.5001 69.1899 40.375 68.875 40.375H67.6875C67.3726 40.375 67.0705 40.5001 66.8478 40.7228C66.6251 40.9455 66.5 41.2476 66.5 41.5625C66.5 41.8774 66.6251 42.1795 66.8478 42.4022C67.0705 42.6249 67.3726 42.75 67.6875 42.75Z" fill="#B91F1F"/>
</svg>
