<svg width="61" height="61" viewBox="0 0 61 61" fill="none" xmlns="http://www.w3.org/2000/svg">
<path d="M49.1935 55.0967H37.3871V57.0645H49.1935V55.0967Z" fill="#B91F1F"/>
<path d="M44.2742 21.6451C46.253 21.6451 48.128 22.2894 49.6994 23.5106L48.4912 25.0652C47.2691 24.1144 45.811 23.6129 44.2742 23.6129C40.4766 23.6129 37.3871 26.7033 37.3871 30.5C37.3871 32.0368 37.8887 33.4958 38.8384 34.7179L37.2848 35.9252C36.0646 34.3548 35.4194 32.4797 35.4194 30.5C35.4194 25.6171 39.3923 21.6451 44.2742 21.6451Z" fill="#B91F1F"/>
<path d="M49.709 26.283L51.2627 25.0739C52.4838 26.6443 53.129 28.5203 53.129 30.5C53.129 35.3829 49.1561 39.3549 44.2742 39.3549C42.2954 39.3549 40.4204 38.7107 38.849 37.4895L40.0562 35.9349C41.2784 36.8856 42.7374 37.3871 44.2742 37.3871C48.0718 37.3871 51.1613 34.2967 51.1613 30.5C51.1613 28.9632 50.6597 27.5042 49.709 26.283Z" fill="#B91F1F"/>
<path d="M2.95161 17.7097H25.5806V4.91935C25.5806 2.20698 27.7876 0 30.5 0H56.0806C58.793 0 61 2.20698 61 4.91935V56.0806C61 58.793 58.793 61 56.0806 61H30.5C27.7876 61 25.5806 58.793 25.5806 56.0806V43.2903H2.95161C1.32448 43.2903 0 41.9658 0 40.3387V20.6613C0 19.0342 1.32448 17.7097 2.95161 17.7097ZM1.96774 20.6613V23.6129H33.4516V20.6613C33.4516 20.1184 33.0096 19.6774 32.4677 19.6774H2.95161C2.40971 19.6774 1.96774 20.1184 1.96774 20.6613ZM35.4194 36.6934C37.45 39.5922 40.7331 41.3226 44.2742 41.3226C50.2413 41.3226 55.0968 36.4671 55.0968 30.5C55.0968 24.5329 50.2413 19.6774 44.2742 19.6774C40.7331 19.6774 37.45 21.4078 35.4194 24.3066V36.6934ZM56.0806 1.96774H30.5C28.8729 1.96774 27.5484 3.29222 27.5484 4.91935V5.90323H59.0323V4.91935C59.0323 3.29222 57.7078 1.96774 56.0806 1.96774ZM30.5 59.0323H56.0806C57.7078 59.0323 59.0323 57.7078 59.0323 56.0806V53.129H27.5484V56.0806C27.5484 57.7078 28.8729 59.0323 30.5 59.0323ZM27.5484 51.1613H59.0323V7.87097H27.5484V17.7097H32.4677C34.0949 17.7097 35.4194 19.0342 35.4194 20.6613V21.2978C37.7777 19.0241 40.9262 17.7097 44.2742 17.7097C51.3265 17.7097 57.0645 23.4476 57.0645 30.5C57.0645 37.5524 51.3265 43.2903 44.2742 43.2903C40.9262 43.2903 37.7777 41.9759 35.4194 39.7022V40.3387C35.4194 41.9658 34.0949 43.2903 32.4677 43.2903H27.5484V51.1613ZM2.95161 41.3226H32.4677C33.0096 41.3226 33.4516 40.8816 33.4516 40.3387V25.5806H1.96774V40.3387C1.96774 40.8816 2.40971 41.3226 2.95161 41.3226Z" fill="#B91F1F"/>
<path d="M8.85483 29.5161C9.75511 29.5161 10.5886 29.777 11.3145 30.2007C12.0404 29.777 12.8739 29.5161 13.7742 29.5161C16.4866 29.5161 18.6935 31.7231 18.6935 34.4355C18.6935 37.1478 16.4866 39.3548 13.7742 39.3548C12.8739 39.3548 12.0404 39.094 11.3145 38.6702C10.5886 39.094 9.75511 39.3548 8.85483 39.3548C6.14246 39.3548 3.93548 37.1478 3.93548 34.4355C3.93548 31.7231 6.14246 29.5161 8.85483 29.5161ZM11.3145 36.0607C11.6244 35.5947 11.8064 35.0365 11.8064 34.4355C11.8064 33.8345 11.6244 33.2762 11.3145 32.8103C11.0046 33.2762 10.8226 33.8345 10.8226 34.4355C10.8226 35.0365 11.0046 35.5947 11.3145 36.0607ZM16.7258 34.4355C16.7258 32.8083 15.4013 31.4839 13.7742 31.4839C13.4643 31.4839 13.1703 31.5449 12.8898 31.6342C13.4437 32.4303 13.7742 33.3935 13.7742 34.4355C13.7742 35.4775 13.4437 36.4407 12.8898 37.2367C13.1703 37.3261 13.4643 37.3871 13.7742 37.3871C15.4013 37.3871 16.7258 36.0626 16.7258 34.4355ZM8.85483 37.3871C9.16469 37.3871 9.4587 37.3261 9.73926 37.2367C9.18535 36.4407 8.85483 35.4775 8.85483 34.4355C8.85483 33.3935 9.18535 32.4303 9.73926 31.6342C9.4587 31.5449 9.16469 31.4839 8.85483 31.4839C7.2277 31.4839 5.90322 32.8083 5.90322 34.4355C5.90322 36.0626 7.2277 37.3871 8.85483 37.3871Z" fill="#B91F1F"/>
<path d="M31.4839 36.4032H29.5161V38.3709H31.4839V36.4032Z" fill="#B91F1F"/>
<path d="M27.5484 36.4032H25.5807V38.3709H27.5484V36.4032Z" fill="#B91F1F"/>
<path d="M23.6129 36.4032H21.6452V38.3709H23.6129V36.4032Z" fill="#B91F1F"/>
<path d="M19.6774 45.2581H9.83869V47.2258H19.6774V45.2581Z" fill="#B91F1F"/>
<path d="M23.6129 45.2581H21.6452V47.2258H23.6129V45.2581Z" fill="#B91F1F"/>
<path d="M17.7097 51.1613H3.80674L4.7541 52.5828L3.11688 53.6752L0.128757 49.1935H17.7097V51.1613Z" fill="#B91F1F"/>
<path d="M13.7742 13.7742H3.93549V15.7419H13.7742V13.7742Z" fill="#B91F1F"/>
<path d="M1.96774 13.7742H0V15.7419H1.96774V13.7742Z" fill="#B91F1F"/>
<path d="M4.91936 9.83873H17.8384L16.8911 8.41721L18.5283 7.32477L21.5164 11.8065H4.91936V9.83873Z" fill="#B91F1F"/>
</svg>
