<svg width="67" height="67" viewBox="0 0 67 67" fill="none" xmlns="http://www.w3.org/2000/svg">
<path d="M60.3 10.05H30.15V12.2834H60.3V10.05Z" fill="#B91F1F"/>
<path d="M49.1333 14.5167H30.15V16.75H49.1333V14.5167Z" fill="#B91F1F"/>
<path d="M49.1333 18.9833H30.15V21.2167H49.1333V18.9833Z" fill="#B91F1F"/>
<path d="M60.3 5.58331H39.0833V7.81665H60.3V5.58331Z" fill="#B91F1F"/>
<path d="M36.85 5.58331H34.6167V7.81665H36.85V5.58331Z" fill="#B91F1F"/>
<path d="M34.6167 44.6667H32.3833V46.9H34.6167V44.6667Z" fill="#B91F1F"/>
<path d="M18.6562 7.48949L17.0772 5.91052L14.8438 8.14385C14.4079 8.57991 14.4079 9.28676 14.8438 9.72282L17.0772 11.9562L18.6562 10.3772L17.2123 8.93334L18.6562 7.48949Z" fill="#B91F1F"/>
<path d="M27.5895 8.14385L25.3562 5.91052L23.7772 7.48949L25.221 8.93334L23.7772 10.3772L25.3562 11.9562L27.5895 9.72282C28.0254 9.28676 28.0254 8.57991 27.5895 8.14385Z" fill="#B91F1F"/>
<path d="M21.2747 5.22883L19.0393 11.9287L21.1568 12.6352L23.3922 5.93533L21.2747 5.22883Z" fill="#B91F1F"/>
<path d="M58.0667 34.6166V25.6833H55.8333V34.6166H53.6V23.45H51.3667V34.6166H49.1333V29.0333H46.9V34.6166H44.6667V27.9166H42.4333V34.6166H40.2V30.15H37.9667V34.6166H35.7333V36.8499H60.3V34.6166H58.0667Z" fill="#B91F1F"/>
<path d="M59.1833 0H7.81667C4.11785 0.00362917 1.1203 3.00118 1.11667 6.7V28.6157V28.6257V41.3167V44.6667C1.1203 48.3655 4.11785 51.363 7.81667 51.3667H21.6432L17.1766 60.3H11.1667C9.31649 60.3 7.81667 61.7998 7.81667 63.65C7.81667 65.5002 9.31649 67 11.1667 67H55.8333C57.6835 67 59.1833 65.5002 59.1833 63.65C59.1833 61.7998 57.6835 60.3 55.8333 60.3H49.8234L45.3568 51.3667H59.1833C62.8822 51.363 65.8797 48.3655 65.8833 44.6667V6.7C65.8797 3.00118 62.8822 0.00362917 59.1833 0ZM3.35 15.7115L5.88819 18.7332C6.10035 18.986 6.41358 19.1318 6.74355 19.1318H10.1617C10.4916 19.1318 10.8049 18.986 11.017 18.7332L13.5563 15.7115L16.0621 16.5255L16.3391 20.4596C16.362 20.7886 16.5292 21.0906 16.7958 21.2848L19.5618 23.2948C19.8294 23.488 20.1683 23.5537 20.4886 23.4746L24.3221 22.5221L25.8721 24.6538L23.7828 28.0038C23.6097 28.2846 23.5696 28.6276 23.6733 28.9407L24.7308 32.1913C24.8326 32.5048 25.0675 32.7574 25.3729 32.8814L29.0333 34.3654V37.0007L25.3707 38.4848C25.0646 38.6082 24.8292 38.8615 24.7286 39.176L24.3936 40.2H17.9605C20.4629 34.9606 18.2441 28.6845 13.0047 26.1821C9.92731 24.7123 6.32801 24.8264 3.35 26.4885V15.7115ZM3.35 29.145C6.96186 26.3272 12.1742 26.971 14.9918 30.583C17.1674 33.3716 17.3353 37.233 15.41 40.2H3.35V29.145ZM55.8333 62.5333C56.45 62.5333 56.95 63.0333 56.95 63.65C56.95 64.2667 56.45 64.7667 55.8333 64.7667H11.1667C10.55 64.7667 10.05 64.2667 10.05 63.65C10.05 63.0333 10.55 62.5333 11.1667 62.5333H55.8333ZM47.3266 60.3H19.6734L24.1401 51.3667H42.8599L47.3266 60.3ZM63.65 44.6667C63.65 47.1335 61.6502 49.1333 59.1833 49.1333H7.81667C5.34981 49.1333 3.35 47.1335 3.35 44.6667V42.4333H15.9929H16.003H63.65V44.6667ZM63.65 40.2H27.0848L30.5699 38.7874C30.9909 38.6166 31.2664 38.2077 31.2667 37.7534V33.6117C31.2668 33.1569 30.9913 32.7475 30.5699 32.5765L26.6883 31.0065L25.9536 28.7452L28.1668 25.1942C28.4069 24.8084 28.3892 24.3157 28.1221 23.948L25.6878 20.598C25.4205 20.23 24.9568 20.0608 24.5153 20.1703L20.4551 21.1754L18.5367 19.7817L18.243 15.6166C18.211 15.1625 17.9066 14.7732 17.4736 14.6328L13.5374 13.3531C13.1042 13.2152 12.6308 13.3513 12.3369 13.6982L9.64912 16.8974H7.26727L4.57834 13.6982C4.28437 13.3509 3.81021 13.2146 3.3768 13.3531L3.35 13.3631V6.7C3.35 4.23314 5.34981 2.23333 7.81667 2.23333H59.1833C61.6502 2.23333 63.65 4.23314 63.65 6.7V40.2Z" fill="#B91F1F"/>
</svg>
